<svg width="90" height="60" viewBox="0 0 90 60" fill="none" xmlns="http://www.w3.org/2000/svg">
  <metadata>
    <![CDATA[
    <rdf:RDF xmlns:rdf="http://www.w3.org/1999/02/22-rdf-syntax-ns#"
           xmlns:dc="http://purl.org/dc/elements/1.1/">
      <rdf:Description rdf:about="https://t.me/prisyachev">
        <dc:title>Beautylips</dc:title>
        <dc:description>Beautylips, logo for js libs project</dc:description>
        <dc:creator>Vadim Prisyachev</dc:creator>
        <dc:date>2025-05-19</dc:date>
        <dc:rights>© 2025 Vadim Prisyachev. All rights reserved.</dc:rights>
      </rdf:Description>
    </rdf:RDF>
    ]]>
  </metadata>
  <path d="M64.6055 4.56641C67.0449 2.14801 70.9827 2.15455 73.4141 4.58594L73.6357 4.81836C75.5909 6.98219 75.7591 10.1834 74.1465 12.5293L89.7998 33.4004L64.2002 52.5996L63.9404 52.7949L45 59.1084L31.9766 54.7666C31.8058 54.9916 31.6194 55.2088 31.4141 55.4141C29.0523 57.7758 25.2689 57.85 22.8184 55.6357L22.5859 55.4141C20.8646 53.6928 20.36 51.217 21.0693 49.0518L0.200195 33.4004L19.6836 7.42188L33 0.763672L45 6.76367L57 0.763672L64.6055 4.56641ZM45 29.2363L32.9092 23.1904L7.04688 33.5352L23.4688 45.8525C25.9003 44.1804 29.2522 44.4241 31.4141 46.5859L31.6357 46.8184C32.7004 47.9967 33.2345 49.4833 33.2412 50.9717L45 54.8906L62.0605 49.2041L82.9521 33.5352L57.0898 23.1904L45 29.2363ZM28.5859 49.4141C27.7649 48.593 26.4658 48.5423 25.585 49.2607L25.4141 49.4141C24.5383 50.2899 24.5383 51.7101 25.4141 52.5859L25.585 52.7393C26.4658 53.4577 27.7649 53.407 28.5859 52.5859C29.407 51.7649 29.4577 50.4658 28.7393 49.585L28.5859 49.4141ZM45 11.2363L33 5.23633L22.3154 10.5781L8.87891 28.4932L33.0908 18.8096L45 24.7637L56.9092 18.8096L81.1201 28.4932L70.9473 14.9297C68.878 15.6074 66.5252 15.178 64.8184 13.6357L64.5859 13.4141C63.1488 11.977 62.5592 10.0138 62.8164 8.14453L57 5.23633L45 11.2363ZM70.5859 7.41406C69.7649 6.593 68.4658 6.54233 67.585 7.26074L67.4141 7.41406C66.5383 8.28987 66.5383 9.71013 67.4141 10.5859L67.585 10.7393C68.4658 11.4577 69.7649 11.407 70.5859 10.5859C71.407 9.76488 71.4577 8.46581 70.7393 7.58496L70.5859 7.41406Z" fill="black" style="fill:black;fill-opacity:1;"/>
  <path d="M45 11.2363L33 5.23633L22.3154 10.5781L8.87891 28.4932L33.0908 18.8096L45 24.7637L56.9092 18.8096L81.1201 28.4932L70.9473 14.9297C68.878 15.6074 66.5252 15.178 64.8184 13.6357L64.5859 13.4141C63.1488 11.977 62.5592 10.0138 62.8164 8.14453L57 5.23633L45 11.2363Z" fill="black" fill-opacity="0.2" style="fill:black;fill-opacity:0.2;"/>
</svg>
